{"scene":0,"asset":{"generator":"ImageToStl.com","version":"2.0"},"scenes":[{"name":"Scene","nodes":[0]}],"nodes":[{"name":"Node0","children":[1]},{"name":"Node1","mesh":0}],"materials":[{"name":"Walls","pbrMetallicRoughness":{"baseColorFactor":[0.8,0.8,0.8,1.0],"metallicFactor":0.5,"roughnessFactor":0.75},"emissiveFactor":[0.0,0.0,0.0],"doubleSided":true},{"name":"Wall","pbrMetallicRoughness":{"baseColorFactor":[0.8,0.8,0.8,1.0],"metallicFactor":0.5,"roughnessFactor":0.75},"emissiveFactor":[0.0,0.0,0.0],"doubleSided":true}],"meshes":[{"name":"Mesh0","primitives":[{"indices":3,"material":0,"attributes":{"POSITION":0,"NORMAL":1,"TEXCOORD_0":2}},{"indices":4,"material":0,"attributes":{"POSITION":0,"NORMAL":1,"TEXCOORD_0":2}},{"indices":5,"material":1,"attributes":{"POSITION":0,"NORMAL":1,"TEXCOORD_0":2}}]}],"accessors":[{"bufferView":0,"componentType":5126,"count":11648,"type":"VEC3","min":[-8.171192,-6.664122,-0.31397748],"max":[10.228424,11.735496,6.1681976]},{"bufferView":1,"componentType":5126,"count":11648,"type":"VEC3"},{"bufferView":2,"componentType":5126,"count":11648,"type":"VEC2"},{"bufferView":3,"componentType":5123,"count":11250,"type":"SCALAR"},{"bufferView":4,"componentType":5123,"count":1908,"type":"SCALAR"},{"bufferView":5,"componentType":5123,"count":104139,"type":"SCALAR"}],"bufferViews":[{"target":34962,"buffer":0,"byteLength":139776,"byteOffset":0},{"target":34962,"buffer":0,"byteLength":139776,"byteOffset":139776},{"target":34962,"buffer":0,"byteLength":93184,"byteOffset":279552},{"target":34963,"buffer":0,"byteLength":22500,"byteOffset":372736},{"target":34963,"buffer":0,"byteLength":3816,"byteOffset":395236},{"target":34963,"buffer":0,"byteLength":208278,"byteOffset":399052}],"buffers":[{"byteLength":607332,"uri":"data:application/octet-stream;base64,"}]}