{"scene":0,"asset":{"generator":"ImageToStl.com","version":"2.0"},"scenes":[{"name":"Scene","nodes":[0]}],"nodes":[{"name":"Node0","children":[1]},{"name":"Node1","mesh":0}],"materials":[{"name":"Black","pbrMetallicRoughness":{"baseColorFactor":[0.0,0.0,0.0,1.0],"metallicFactor":0.0,"roughnessFactor":0.90392154},"emissiveFactor":[0.0,0.0,0.0],"doubleSided":true},{"name":"Body","pbrMetallicRoughness":{"baseColorFactor":[1.0,0.0,0.0,1.0],"metallicFactor":0.5,"roughnessFactor":0.90392154},"emissiveFactor":[0.0,0.0,0.0],"doubleSided":true},{"name":"Bottom","pbrMetallicRoughness":{"baseColorFactor":[0.0,0.0,0.0,1.0],"metallicFactor":0.0,"roughnessFactor":0.90392154},"emissiveFactor":[0.0,0.0,0.0],"doubleSided":true},{"name":"Bumpers","pbrMetallicRoughness":{"baseColorFactor":[0.058589,0.058589,0.058589,1.0],"metallicFactor":0.0,"roughnessFactor":0.90392154},"emissiveFactor":[0.0,0.0,0.0],"doubleSided":true},{"name":"Lights","pbrMetallicRoughness":{"baseColorFactor":[1.0,1.0,1.0,1.0],"metallicFactor":0.0,"roughnessFactor":0.90392154},"emissiveFactor":[0.0,0.0,0.0],"doubleSided":true},{"name":"Tires","pbrMetallicRoughness":{"baseColorFactor":[0.0,0.0,0.0,1.0],"metallicFactor":0.5,"roughnessFactor":0.90392154},"emissiveFactor":[0.0,0.0,0.0],"doubleSided":true},{"name":"Wheels","pbrMetallicRoughness":{"baseColorFactor":[0.492142,0.492142,0.492142,1.0],"metallicFactor":0.5,"roughnessFactor":0.90392154},"emissiveFactor":[0.0,0.0,0.0],"doubleSided":true},{"name":"Window","pbrMetallicRoughness":{"baseColorFactor":[0.0,0.0,0.0,1.0],"metallicFactor":1.0,"roughnessFactor":0.90392154},"emissiveFactor":[0.0,0.0,0.0],"doubleSided":true}],"meshes":[{"name":"Mesh0","primitives":[{"indices":2,"material":0,"attributes":{"POSITION":0,"NORMAL":1}},{"indices":3,"material":1,"attributes":{"POSITION":0,"NORMAL":1}},{"indices":4,"material":2,"attributes":{"POSITION":0,"NORMAL":1}},{"indices":5,"material":3,"attributes":{"POSITION":0,"NORMAL":1}},{"indices":6,"material":4,"attributes":{"POSITION":0,"NORMAL":1}},{"indices":7,"material":5,"attributes":{"POSITION":0,"NORMAL":1}},{"indices":8,"material":6,"attributes":{"POSITION":0,"NORMAL":1}},{"indices":9,"material":7,"attributes":{"POSITION":0,"NORMAL":1}}]}],"accessors":[{"bufferView":0,"componentType":5126,"count":1862,"type":"VEC3","min":[-1.042557,-3E-06,-2.274808],"max":[1.057443,1.589997,2.390192]},{"bufferView":1,"componentType":5126,"count":1862,"type":"VEC3"},{"bufferView":2,"componentType":5123,"count":168,"type":"SCALAR"},{"bufferView":3,"componentType":5123,"count":606,"type":"SCALAR"},{"bufferView":4,"componentType":5123,"count":144,"type":"SCALAR"},{"bufferView":5,"componentType":5123,"count":480,"type":"SCALAR"},{"bufferView":6,"componentType":5123,"count":12,"type":"SCALAR"},{"bufferView":7,"componentType":5123,"count":5376,"type":"SCALAR"},{"bufferView":8,"componentType":5123,"count":720,"type":"SCALAR"},{"bufferView":9,"componentType":5123,"count":186,"type":"SCALAR"}],"bufferViews":[{"target":34962,"buffer":0,"byteLength":22344,"byteOffset":0},{"target":34962,"buffer":0,"byteLength":22344,"byteOffset":22344},{"target":34963,"buffer":0,"byteLength":336,"byteOffset":44688},{"target":34963,"buffer":0,"byteLength":1212,"byteOffset":45024},{"target":34963,"buffer":0,"byteLength":288,"byteOffset":46236},{"target":34963,"buffer":0,"byteLength":960,"byteOffset":46524},{"target":34963,"buffer":0,"byteLength":24,"byteOffset":47484},{"target":34963,"buffer":0,"byteLength":10752,"byteOffset":47508},{"target":34963,"buffer":0,"byteLength":1440,"byteOffset":58260},{"target":34963,"buffer":0,"byteLength":372,"byteOffset":59700}],"buffers":[{"byteLength":60072,"uri":"data:application/octet-stream;base64,"}]}
