{"extensionsUsed" : ["KHR_materials_specular"], "accessors" : [{"bufferView" : 0, "byteOffset" : 0, "componentType" : 5123, "count" : 588, "type" : "SCALAR", "max" : [258], "min" : [0]}, {"bufferView" : 1, "byteOffset" : 0, "componentType" : 5126, "count" : 259, "type" : "VEC3", "max" : [0.040159717202186584, 0.040159717202186584, 0.16941794753074646], "min" : [-0.040159717202186584, -0.22005756199359894, -0.7705442309379578], "name" : "POSITION"}, {"bufferView" : 1, "byteOffset" : 12, "componentType" : 5126, "count" : 259, "type" : "VEC3", "max" : [1.0000044107437134, 1.0000044107437134, 1.0000044107437134], "min" : [-1.0000044107437134, -1.0000044107437134, -1.0000044107437134], "name" : "NORMAL"}, {"bufferView" : 1, "byteOffset" : 24, "componentType" : 5126, "count" : 259, "type" : "VEC2", "max" : [1, 2], "min" : [0, 1], "name" : "TEXCOORD_0"}, {"bufferView" : 0, "byteOffset" : 1176, "componentType" : 5123, "count" : 3138, "type" : "SCALAR", "max" : [555], "min" : [0]}, {"bufferView" : 2, "byteOffset" : 0, "componentType" : 5126, "count" : 556, "type" : "VEC3", "max" : [0.9585592746734619, -1.2031302452087402, 2.4936256408691406], "min" : [-0.7895987629890442, -6.987557411193848, 0.13589411973953247], "name" : "POSITION"}, {"bufferView" : 2, "byteOffset" : 12, "componentType" : 5126, "count" : 556, "type" : "VEC3", "max" : [0.9993813037872314, 0.9979163408279419, 0.9997091293334961], "min" : [-0.9972316026687622, -0.9999574422836304, -0.9989940524101257], "name" : "NORMAL"}], "asset" : {"generator" : "Aspose.3D 24.4.1", "version" : "2.0"}, "buffers" : [{"uri" : "data:application/octet-stream;base64,", "byteLength" : 29096}], "bufferViews" : [{"buffer" : 0, "byteOffset" : 0, "byteLength" : 7452, "target" : 34963}, {"buffer" : 0, "byteOffset" : 7456, "byteLength" : 8288, "byteStride" : 32, "target" : 34962}, {"buffer" : 0, "byteOffset" : 15748, "byteLength" : 13344, "byteStride" : 24, "target" : 34962}], "materials" : [{"name" : "Material.001", "extensions" : {"KHR_materials_specular" : {"specularFactor" : 0}}, "pbrMetallicRoughness" : {"baseColorFactor" : [1, 1, 1, 1], "metallicFactor" : 0, "roughnessFactor" : 0.690034806728363}, "emissiveFactor" : [0, 0, 0], "alphaMode" : "OPAQUE", "doubleSided" : true}], "meshes" : [{"primitives" : [{"attributes" : {"POSITION" : 1, "NORMAL" : 2, "TEXCOORD_0" : 3}, "indices" : 0, "mode" : 4}]}, {"primitives" : [{"attributes" : {"POSITION" : 5, "NORMAL" : 6}, "indices" : 4, "material" : 0, "mode" : 4}]}], "nodes" : [{"matrix" : [1, 0, 0, 0, 0, 1, 0, 0, 0, 0, 1, 0, 0.17362040281295776, 1.5173333883285522, 0.6846538186073303, 1], "mesh" : 0, "name" : "円柱"}, {"matrix" : [0.34603846073150635, 0, 0, 0, 0, 0.34603846073150635, 0, 0, 0, 0, 0.34603846073150635, 0, 0, 2.4124252796173096, -0.24381013214588165, 1], "mesh" : 1, "name" : "Cube.001"}], "scene" : 0, "scenes" : [{"nodes" : [0, 1]}]}