{"accessors" : [{"bufferView" : 0, "byteOffset" : 0, "componentType" : 5123, "count" : 3726, "type" : "SCALAR", "max" : [1096], "min" : [0]}, {"bufferView" : 1, "byteOffset" : 0, "componentType" : 5126, "count" : 1097, "type" : "VEC3", "max" : [0.15807798504829407, 0.47876256704330444, 0.16941794753074646], "min" : [-0.4468519389629364, -1.5228716135025024, -0.8814393281936646], "name" : "POSITION"}, {"bufferView" : 1, "byteOffset" : 12, "componentType" : 5126, "count" : 1097, "type" : "VEC3", "max" : [1.0000044107437134, 1.0000044107437134, 1.0000044107437134], "min" : [-1.0000044107437134, -1.0000044107437134, -1.0000044107437134], "name" : "NORMAL"}, {"bufferView" : 1, "byteOffset" : 24, "componentType" : 5126, "count" : 1097, "type" : "VEC2", "max" : [0.9958934783935547, 2.9999356269836426], "min" : [4.6912580728530884E-05, 2.0001132488250732], "name" : "TEXCOORD_0"}], "asset" : {"generator" : "Aspose.3D 24.6.0", "version" : "2.0"}, "buffers" : [{"uri" : "data:application/octet-stream;base64,", "byteLength" : 42564}], "bufferViews" : [{"buffer" : 0, "byteOffset" : 0, "byteLength" : 7452, "target" : 34963}, {"buffer" : 0, "byteOffset" : 7456, "byteLength" : 35104, "byteStride" : 32, "target" : 34962}], "materials" : [{"name" : "0", "pbrMetallicRoughness" : {"baseColorFactor" : [1, 1, 1, 1], "metallicFactor" : 1, "roughnessFactor" : 1}, "emissiveFactor" : [0, 0, 0], "alphaMode" : "OPAQUE", "doubleSided" : false}], "meshes" : [{"primitives" : [{"attributes" : {"POSITION" : 1, "NORMAL" : 2, "TEXCOORD_0" : 3}, "indices" : 0, "material" : 0, "mode" : 4}]}], "nodes" : [{"matrix" : [0.2557910084724426, 0, 0, 0, 0, 0.2557910084724426, 0, 0, 0, 0, 0.2557910084724426, 0, 0.04905875027179718, 0.3888063430786133, 0.17312678694725037, 1], "mesh" : 0, "name" : "node_id4"}], "scene" : 0, "scenes" : [{"nodes" : [0]}]}